# Blender v2.76 (sub 0) OBJ File: ''
# www.blender.org
mtllib gargoyle.mtl
o gargoyleWall
v 0.919214 0.968871 0.476038
v 0.927262 0.841041 0.690734
v 0.976997 0.809367 0.670011
v 0.968949 0.937197 0.455315
v 0.575014 0.642375 0.148992
v 0.612811 0.685755 0.173403
v 0.662546 0.654080 0.152680
v 0.624749 0.610702 0.128269
v 0.939200 0.765989 0.645601
v 0.889465 0.797662 0.666324
v 0.891477 0.765705 0.719997
v 0.941212 0.734031 0.699275
v 0.849520 0.902933 0.221059
v 0.799785 0.934607 0.241783
v 0.801798 0.902649 0.295457
v 0.851533 0.870976 0.274734
v 0.686394 0.804470 0.168551
v 0.684382 0.836428 0.114876
v 0.734117 0.804753 0.094153
v 0.736129 0.772796 0.147827
v 0.610799 0.717712 0.119729
v 0.660534 0.686038 0.099005
v 0.853680 0.722326 0.695587
v 0.903415 0.690652 0.674864
v 0.551301 0.375294 0.500301
v 0.539229 0.567039 0.178256
v 0.588964 0.535366 0.157532
v 0.601036 0.343621 0.479578
v 0.722179 0.879806 0.139287
v 0.771914 0.848133 0.118564
v 0.855692 0.690369 0.749261
v 0.905427 0.658694 0.728538
v 0.742300 0.560232 0.676029
v 0.792035 0.528558 0.655306
v 0.724191 0.847849 0.192961
v 0.773926 0.816175 0.172238
v 0.839595 0.946028 0.319867
v 0.889330 0.914354 0.299145
v 0.577026 0.610418 0.202666
v 0.626761 0.578744 0.181944
v 0.843619 0.882114 0.427216
v 0.893354 0.850439 0.406493
v 0.960901 1.065027 0.240618
v 0.981022 0.745451 0.777359
v 0.603045 0.311664 0.533252
v 0.582924 0.631240 -0.003489
v 0.740288 0.592189 0.622355
v 0.790023 0.560515 0.601632
v 0.911165 1.096702 0.261341
v 0.533188 0.662915 0.017235
v 0.553310 0.343339 0.553976
v 0.931286 0.777126 0.798083
v 0.088835 1.096702 0.261341
v 0.068714 0.777126 0.798083
v 0.446690 0.343339 0.553976
v 0.466812 0.662915 0.017235
v 0.422974 0.610418 0.202666
v 0.373239 0.578744 0.181944
v 0.375251 0.610702 0.128269
v 0.424986 0.642375 0.148992
v 0.259712 0.592189 0.622355
v 0.209977 0.560515 0.601632
v 0.398964 0.343621 0.479578
v 0.448699 0.375294 0.500301
v 0.257700 0.560232 0.676029
v 0.207965 0.528558 0.655306
v 0.160405 0.946028 0.319867
v 0.110670 0.914354 0.299145
v 0.106646 0.850439 0.406493
v 0.156381 0.882114 0.427216
v 0.039099 1.065027 0.240618
v 0.417076 0.631240 -0.003489
v 0.396955 0.311664 0.533252
v 0.018978 0.745451 0.777359
v 0.031051 0.937197 0.455315
v 0.080786 0.968871 0.476038
v 0.460771 0.567039 0.178256
v 0.411036 0.535366 0.157532
v 0.226074 0.816175 0.172238
v 0.150480 0.902933 0.221059
v 0.200215 0.934607 0.241783
v 0.275809 0.847849 0.192961
v 0.072738 0.841041 0.690734
v 0.023003 0.809367 0.670011
v 0.060800 0.765989 0.645601
v 0.110535 0.797662 0.666324
v 0.198202 0.902649 0.295457
v 0.148467 0.870976 0.274734
v 0.387189 0.685755 0.173403
v 0.337454 0.654080 0.152680
v 0.339466 0.686038 0.099005
v 0.389201 0.717712 0.119729
v 0.277821 0.879806 0.139287
v 0.228086 0.848133 0.118564
v 0.144308 0.690369 0.749261
v 0.094573 0.658694 0.728538
v 0.146320 0.722326 0.695587
v 0.096585 0.690652 0.674864
v 0.315618 0.836428 0.114876
v 0.265883 0.804753 0.094153
v 0.058788 0.734031 0.699275
v 0.108523 0.765705 0.719997
v 0.263871 0.772796 0.147827
v 0.313606 0.804470 0.168551
v 0.563453 0.164880 0.922366
v 0.563453 0.217727 0.955734
v 0.563453 0.184360 1.008582
v 0.563453 0.131512 0.975214
v 0.563453 0.523627 0.705384
v 0.563453 0.456892 0.811079
v 0.625953 0.456892 0.811079
v 0.625953 0.523627 0.705384
v 0.375953 0.456892 0.811079
v 0.375953 0.404045 0.777711
v 0.375953 0.337310 0.883406
v 0.375953 0.390157 0.916774
v 0.438453 0.303942 0.936254
v 0.375953 0.303942 0.936254
v 0.375953 0.251095 0.902886
v 0.438453 0.251095 0.902886
v 0.563453 0.390157 0.916774
v 0.625953 0.390157 0.916774
v 0.625953 0.284462 0.850039
v 0.625953 0.351197 0.744344
v 0.625953 0.404045 0.777711
v 0.625953 0.337310 0.883406
v 0.563453 0.284462 0.850039
v 0.563453 0.351197 0.744344
v 0.625953 0.303942 0.936254
v 0.625953 0.251095 0.902886
v 0.438453 0.337310 0.883406
v 0.563453 0.337310 0.883406
v 0.563453 0.303942 0.936254
v 0.438453 0.237207 1.041949
v 0.563453 0.237207 1.041949
v 0.563453 0.290055 1.075316
v 0.438453 0.290055 1.075316
v 0.438453 0.523627 0.705384
v 0.438453 0.470780 0.672016
v 0.375953 0.470780 0.672016
v 0.375953 0.523627 0.705384
v 0.438453 0.390157 0.916774
v 0.438453 0.456892 0.811079
v 0.563453 0.356790 0.969621
v 0.438453 0.356790 0.969621
v 0.563453 0.404045 0.777711
v 0.438453 0.404045 0.777711
v 0.563453 0.323422 1.022469
v 0.438453 0.323422 1.022469
v 0.625953 0.470780 0.672016
v 0.438453 0.217727 0.955734
v 0.438453 0.164880 0.922367
v 0.438453 0.131512 0.975214
v 0.438453 0.184360 1.008582
v 0.375953 0.351197 0.744344
v 0.375953 0.284462 0.850039
v 0.563453 0.251095 0.902886
v 0.563453 0.270584 0.989086
v 0.563453 0.470780 0.672016
v 0.438453 0.270588 0.989080
v 0.438453 0.284568 0.756597
v 0.563453 0.284568 0.756597
v 0.563453 0.109079 0.822627
v 0.438453 0.109079 0.822628
v 0.438453 0.306578 0.815093
v 0.438453 0.131089 0.881124
v 0.563453 0.306578 0.815093
v 0.563453 0.131089 0.881124
v 0.437500 0.411383 0.512686
v 0.437500 0.224289 0.500358
v 0.437500 0.203743 0.812182
v 0.437500 0.390838 0.824510
v 0.562500 0.390838 0.824510
v 0.562500 0.411383 0.512686
v 0.562500 0.224289 0.500358
v 0.562500 0.203743 0.812182
v 0.625953 0.430430 0.586187
v 0.625953 0.487207 0.342720
v 0.375953 0.487207 0.342720
v 0.375953 0.430430 0.586187
v 0.625953 0.243740 0.285943
v 0.375953 0.243740 0.285943
v 0.683776 0.172716 0.250090
v 0.485597 0.185688 0.401933
v 0.485597 0.310234 0.391294
v 0.683776 0.297263 0.239450
v 0.375953 0.186963 0.529410
v 0.625953 0.186963 0.529410
v 0.596900 0.550153 0.167823
v 0.409400 0.550152 0.167823
v 0.409400 0.431821 0.457053
v 0.596900 0.431821 0.457053
v 0.596900 0.376615 0.096824
v 0.409400 0.376615 0.096824
v 0.596900 0.258283 0.386054
v 0.409400 0.258283 0.386054
v 0.350734 0.507829 0.305753
v 0.320812 0.341320 0.224910
v 0.421458 0.395411 0.076248
v 0.451380 0.561921 0.157091
v 0.353652 0.472975 0.000250
v 0.471501 0.431302 0.000278
v 0.408992 0.254528 0.000397
v 0.291143 0.296201 0.000369
v 0.541522 0.372419 0.062818
v 0.583195 0.254570 0.062897
v 0.701044 0.296243 0.062869
v 0.659371 0.414092 0.062790
v 0.520686 0.431385 0.125278
v 0.541522 0.372461 0.125318
v 0.659371 0.414134 0.125290
v 0.638535 0.473058 0.125250
v 0.471501 0.431385 0.125278
v 0.353652 0.473058 0.125250
v 0.332816 0.414134 0.125290
v 0.450665 0.372461 0.125318
v 0.450665 0.372419 0.062818
v 0.638535 0.472975 0.000250
v 0.701044 0.296201 0.000369
v 0.583195 0.254528 0.000397
v 0.520686 0.431302 0.000278
v 0.408992 0.254570 0.062897
v 0.291143 0.296243 0.062869
v 0.332816 0.414092 0.062790
v 0.641453 0.507829 0.305753
v 0.540807 0.561921 0.157091
v 0.570729 0.395411 0.076248
v 0.671376 0.341320 0.224910
v 0.693234 0.530202 0.278838
v 0.723156 0.363693 0.197995
v 0.622510 0.417785 0.049332
v 0.592588 0.584294 0.130175
v 0.298953 0.530202 0.278838
v 0.269031 0.363693 0.197995
v 0.399600 0.584294 0.130175
v 0.369677 0.417785 0.049332
v 0.562500 -0.062500 0.062500
v 0.562500 0.062500 0.062500
v 0.562500 0.062500 0.000000
v 0.562500 0.000000 0.000000
v 0.429687 0.000000 -0.062500
v 0.304687 0.000000 -0.062500
v 0.304687 0.000000 0.000000
v 0.429687 0.000000 0.000000
v 0.429687 -0.062500 -0.062500
v 0.304687 -0.062500 -0.062500
v 0.687500 0.000000 0.000000
v 0.687500 0.062500 0.000000
v 0.687500 0.062500 0.062500
v 0.687500 -0.062500 0.062500
v 0.304687 -0.062500 0.062500
v 0.562500 0.000000 -0.062500
v 0.687500 0.000000 -0.062500
v 0.687500 -0.062500 -0.062500
v 0.562500 -0.062500 -0.062500
v 0.429687 -0.062500 0.062500
v 0.429687 0.062500 0.000000
v 0.429687 0.062500 0.062500
v 0.304687 0.062500 0.062500
v 0.304687 0.062500 0.000000
v 0.759975 0.305697 0.338180
v 0.561795 0.318668 0.490024
v 0.561795 0.194122 0.500664
v 0.759975 0.181151 0.348820
v 0.662159 0.046650 0.016549
v 0.600159 0.048732 0.024159
v 0.635151 0.260444 0.251336
v 0.697151 0.258362 0.243727
v 0.295036 0.258362 0.243727
v 0.330028 0.046650 0.016549
v 0.326387 0.000726 0.058786
v 0.291394 0.212438 0.285964
v 0.232213 0.305697 0.338181
v 0.232213 0.181151 0.348820
v 0.430393 0.194122 0.500664
v 0.430393 0.318668 0.490024
v 0.308411 0.297263 0.239450
v 0.308411 0.172717 0.250090
v 0.506591 0.185688 0.401933
v 0.506591 0.310234 0.391294
v 0.700793 0.212438 0.285964
v 0.665801 0.000725 0.058786
v 0.603801 0.002808 0.066395
v 0.638793 0.214520 0.293573
v 0.392028 0.048732 0.024159
v 0.357036 0.260444 0.251336
v 0.353395 0.214520 0.293573
v 0.388387 0.002808 0.066395
v 0.438453 0.284462 0.850039
v 0.438453 0.351197 0.744344
vt 0.343750 0.531250
vt 0.343750 0.656250
vt 0.312500 0.656250
vt 0.312500 0.531250
vt 0.062500 0.781250
vt 0.062500 0.750000
vt 0.031250 0.750000
vt 0.031250 0.781250
vt 0.343750 0.593750
vt 0.312500 0.593750
vt 0.312500 0.562500
vt 0.343750 0.562500
vt 0.062500 0.906250
vt 0.062500 0.937500
vt 0.093750 0.937500
vt 0.093750 0.906250
vt 0.062500 0.843750
vt 0.031250 0.843750
vt 0.031250 0.812500
vt 0.062500 0.812500
vt 0.093750 0.750000
vt 0.093750 0.812500
vt 0.281250 0.625000
vt 0.250000 0.625000
vt 0.250000 0.593750
vt 0.281250 0.593750
vt 0.281250 0.687500
vt 0.093750 0.687500
vt 0.093750 0.718750
vt 0.281250 0.718750
vt 0.062500 0.875000
vt 0.093750 0.875000
vt 0.093750 0.843750
vt 0.312500 0.500000
vt 0.343750 0.500000
vt 0.281250 0.500000
vt 0.000000 0.812500
vt 0.000000 0.843750
vt 0.312500 0.468750
vt 0.343750 0.468750
vt 0.125000 0.718750
vt 0.125000 0.687500
vt 0.156250 0.937500
vt 0.156250 1.000000
vt 0.125000 1.000000
vt 0.125000 0.937500
vt 0.000000 1.000000
vt 0.312500 1.000000
vt 0.312500 0.687500
vt 0.000000 0.687500
vt 0.062500 0.562500
vt 0.125000 0.562500
vt 0.125000 0.593750
vt 0.062500 0.593750
vt 0.281250 0.531250
vt 0.250000 0.843750
vt 0.250000 0.687500
vt 0.281250 0.843750
vt 0.062500 0.718750
vt 0.000000 0.656250
vt 0.000000 0.343750
vt 0.312500 0.343750
vt 1.000000 0.687500
vt 0.968750 0.687500
vt 0.968750 0.656250
vt 1.000000 0.656250
vt 0.906250 0.968750
vt 0.906250 0.906250
vt 0.937500 0.906250
vt 0.937500 0.968750
vt 0.812500 0.906250
vt 0.781250 0.906250
vt 0.781250 0.843750
vt 0.812500 0.843750
vt 0.781250 0.781250
vt 0.781250 0.812500
vt 0.750000 0.812500
vt 0.750000 0.781250
vt 0.906250 0.843750
vt 0.937500 0.843750
vt 1.000000 0.843750
vt 1.000000 0.906250
vt 0.968750 0.906250
vt 0.968750 0.843750
vt 0.843750 0.187500
vt 0.843750 0.250000
vt 0.812500 0.250000
vt 0.812500 0.187500
vt 0.968750 0.812500
vt 1.000000 0.812500
vt 0.812500 0.812500
vt 0.812500 0.781250
vt 0.843750 0.781250
vt 0.843750 0.812500
vt 0.906250 0.812500
vt 0.937500 0.812500
vt 0.906250 0.781250
vt 0.937500 0.781250
vt 0.843750 0.718750
vt 0.906250 0.718750
vt 0.906250 0.750000
vt 0.843750 0.750000
vt 0.843750 0.968750
vt 0.843750 1.000000
vt 0.812500 1.000000
vt 0.812500 0.968750
vt 0.843750 0.843750
vt 0.843750 0.906250
vt 0.843750 0.281250
vt 0.812500 0.281250
vt 0.906250 0.343750
vt 0.906250 0.281250
vt 0.937500 0.281250
vt 0.937500 0.343750
vt 0.968750 0.968750
vt 0.781250 0.687500
vt 0.750000 0.687500
vt 0.750000 0.656250
vt 0.781250 0.656250
vt 0.906250 0.093750
vt 0.906250 0.125000
vt 0.843750 0.125000
vt 0.843750 0.093750
vt 0.750000 0.906250
vt 0.750000 0.843750
vt 0.968750 0.781250
vt 1.000000 0.781250
vt 0.906250 0.656250
vt 0.906250 0.687500
vt 0.843750 0.687500
vt 0.843750 0.656250
vt 0.937500 0.687509
vt 0.937500 0.656250
vt 0.906250 0.312500
vt 0.843750 0.312500
vt 0.875000 0.906250
vt 0.875000 0.968750
vt 0.937500 1.000000
vt 0.906250 1.000000
vt 0.843750 0.625000
vt 0.906250 0.625000
vt 0.906250 0.156250
vt 0.843750 0.156250
vt 0.812500 0.343750
vt 0.843750 0.343750
vt 0.781250 0.968750
vt 0.812500 0.656250
vt 0.812500 0.687513
vt 0.843750 0.468750
vt 0.906250 0.468750
vt 0.906250 0.375000
vt 0.843750 0.375000
vt 0.843750 0.500000
vt 0.812500 0.500000
vt 0.812500 0.593750
vt 0.843750 0.593750
vt 0.906250 0.500000
vt 0.937500 0.500000
vt 0.937500 0.593750
vt 0.906250 0.593750
vt 0.343750 0.937500
vt 0.343750 0.843750
vt 0.500000 0.843750
vt 0.500000 0.937500
vt 0.500000 1.000000
vt 0.343750 1.000000
vt 0.343750 0.781250
vt 0.500000 0.781250
vt 0.500000 0.875000
vt 0.625000 0.875000
vt 0.625000 1.000000
vt 0.625000 0.750000
vt 0.750000 0.750000
vt 0.750000 0.875000
vt 0.468750 0.593750
vt 0.468750 0.656250
vt 0.750000 1.000000
vt 0.500000 0.750000
vt 0.343750 0.437500
vt 0.437500 0.437500
vt 0.437500 0.593750
vt 0.625000 0.500000
vt 0.718750 0.500000
vt 0.718750 0.593750
vt 0.625000 0.593750
vt 0.531250 0.437500
vt 0.625000 0.437500
vt 0.531250 0.593750
vt 0.562500 0.437500
vt 0.562500 0.343750
vt 0.468750 0.343750
vt 0.468750 0.437500
vt 0.718750 0.406250
vt 0.718750 0.343750
vt 0.812500 0.406250
vt 0.562500 0.406250
vt 0.625000 0.343750
vt 0.625000 0.406250
vt 0.687500 0.406250
vt 0.687500 0.437500
vt 0.656250 0.406250
vt 0.625000 0.375000
vt 0.656250 0.375000
vt 0.656250 0.343750
vt 0.656250 0.437500
vt 0.718750 0.437500
vt 0.531250 0.406250
vt 0.343750 0.343750
vt 0.437500 0.343750
vt 0.531250 0.343750
vt 0.812500 0.375000
vt 0.718750 0.375000
vt 0.468750 0.406250
vt 0.500000 0.406250
vt 0.750000 0.375000
vt 0.750000 0.406250
vt 0.343750 0.375000
vt 0.343750 0.406250
vt 0.406250 0.406250
vt 0.406250 0.375000
vt 0.750000 0.343750
vt 0.375000 0.406250
vt 0.406250 0.437500
vt 0.375000 0.375000
vt 0.500000 0.375000
vt 0.531250 0.375000
vt 0.593750 0.375000
vt 0.593750 0.437500
vt 0.468750 0.718750
vt 0.343750 0.718750
vt 0.781250 0.437500
vt 0.812500 0.437500
vt 0.781250 0.593750
vt 0.406250 0.781250
vt 0.406250 0.718750
vt 0.468750 0.781250
vt 0.750000 0.593750
vt 0.750000 0.437500
vt 0.781250 0.718750
vt 0.812500 0.718750
vt 0.812500 0.750000
vt 0.937500 0.718750
vt 0.937500 0.750000
vt 0.968750 0.718750
vt 0.906250 0.187500
vt 0.937500 0.187500
vt 0.937500 0.250000
vt 0.906250 0.250000
vt 0.812500 0.156250
vt 0.937500 0.156250
vt 0.625000 0.625000
vt 0.500000 0.625000
vn 0.604800 0.694100 0.390600
vn -0.032200 0.511300 -0.858800
vn 0.604700 0.694100 0.390600
vn -0.604800 -0.694100 -0.390600
vn 0.032200 -0.511300 0.858800
vn -0.604700 -0.694100 -0.390600
vn 0.795800 -0.506800 -0.331600
vn -0.795800 0.506800 0.331600
vn 0.795800 0.506800 0.331600
vn 0.604700 -0.694100 -0.390600
vn -0.032200 -0.511300 0.858800
vn 0.604800 -0.694100 -0.390600
vn -0.604800 0.694100 0.390600
vn -0.795800 -0.506800 -0.331600
vn 0.032200 0.511300 -0.858800
vn -0.604700 0.694100 0.390600
vn 1.000000 0.000000 0.000000
vn 0.000000 0.845600 0.533900
vn -1.000000 0.000000 0.000000
vn 0.000000 -0.533900 0.845600
vn 0.000000 -0.845600 -0.533900
vn 0.000000 0.533900 -0.845600
vn -0.000000 -0.352200 -0.935900
vn 0.000000 -0.935900 0.352200
vn 0.000000 0.997800 0.065700
vn 0.000000 -0.997800 -0.065700
vn 0.000000 0.973900 0.227100
vn 0.000000 0.227100 -0.973900
vn -0.609600 -0.067500 -0.789800
vn 0.000000 -0.227100 0.973900
vn -0.000000 0.925500 0.378700
vn -0.000000 0.378700 -0.925500
vn 0.000000 -0.925500 -0.378700
vn 0.828500 -0.358000 0.430700
vn -0.000000 -0.000700 -1.000000
vn 0.000000 0.000700 1.000000
vn 0.942800 -0.333400 0.000200
vn 0.333400 -0.942800 0.000600
vn 0.333400 0.942800 -0.000600
vn -0.333400 0.942800 -0.000600
vn -0.333400 -0.942800 0.000600
vn -0.942800 0.333400 -0.000200
vn 0.942800 0.333400 -0.000200
vn -0.942800 -0.333400 0.000200
vn -0.828500 -0.358000 0.430700
vn 0.536800 -0.288500 0.792900
vn 0.159600 -0.888000 -0.431200
vn 0.828500 0.358000 -0.430600
vn -0.159600 0.888000 0.431200
vn -0.536800 -0.288500 0.792900
vn -0.828500 0.358000 -0.430600
vn 0.536800 0.288500 -0.792900
vn -0.159600 -0.888000 -0.431200
vn 0.159600 0.888000 0.431200
vn -0.536800 0.288500 -0.792900
vn 0.000000 1.000000 0.000000
vn 0.000000 0.000000 -1.000000
vn 0.000000 -0.000000 1.000000
vn 0.000000 -1.000000 -0.000000
vn 0.609600 0.067500 0.789800
vn -0.058300 0.734800 -0.675800
vn 0.000000 -0.996400 0.085100
vn 0.792700 -0.051900 -0.607400
vn -0.000000 0.996400 -0.085100
vn -0.992000 -0.033300 -0.121800
vn -0.609600 0.067500 0.789800
vn -0.792700 -0.051900 -0.607400
vn 0.992000 -0.033300 -0.121800
vn -0.992000 0.033300 0.121800
vn 0.058300 -0.734800 0.675800
vn 0.992000 0.033300 0.121700
vn 0.058300 0.734800 -0.675800
vn -0.058300 -0.734800 0.675800
vn 0.609600 -0.067500 -0.789800
vn 0.000000 0.352200 0.935900
vn 0.000000 -0.973900 -0.227100
usemtl material
f 1/1/1 2/2/1 3/3/1 4/4/1
f 5/5/2 6/6/2 7/7/2 8/8/2
f 9/9/3 10/10/3 11/11/3 12/12/3
f 13/13/1 14/14/1 15/15/1 16/16/1
f 17/17/4 18/18/4 19/19/4 20/20/4
f 21/21/2 17/22/2 20/20/2 22/6/2
f 12/23/5 11/24/5 23/25/5 24/26/5
f 25/27/6 26/28/6 27/29/6 28/30/6
f 18/17/2 29/31/2 30/32/2 19/33/2
f 23/4/1 31/34/1 32/35/1 24/1/1
f 31/26/5 33/36/5 34/34/5 32/10/5
f 29/37/1 35/19/1 36/18/1 30/38/1
f 6/20/4 21/5/4 22/8/4 7/19/4
f 15/14/2 37/13/2 38/16/2 16/15/2
f 2/34/5 10/39/5 9/40/5 3/35/5
f 36/33/2 35/17/2 14/13/2 13/16/2
f 26/28/2 39/29/2 40/41/2 27/42/2
f 41/43/2 1/44/2 4/45/2 42/46/2
f 43/47/7 44/48/7 45/49/7 46/50/7
f 37/51/1 41/52/1 42/53/1 38/54/1
f 33/36/4 47/34/4 48/4/4 34/55/4
f 47/56/5 25/57/5 28/27/5 48/58/5
f 39/59/6 5/6/6 8/21/6 40/29/6
f 49/60/8 50/61/8 51/62/8 52/3/8
f 53/60/9 54/3/9 55/62/9 56/61/9
f 57/59/10 58/29/10 59/21/10 60/6/10
f 61/56/11 62/58/11 63/27/11 64/57/11
f 65/36/12 66/55/12 62/4/12 61/34/12
f 67/51/13 68/54/13 69/53/13 70/52/13
f 71/47/14 72/50/14 73/49/14 74/48/14
f 70/43/15 69/46/15 75/45/15 76/44/15
f 77/28/15 78/42/15 58/41/15 57/29/15
f 79/33/15 80/16/15 81/13/15 82/17/15
f 83/34/11 84/35/11 85/40/11 86/39/11
f 87/14/15 88/15/15 68/16/15 67/13/15
f 89/20/12 90/19/12 91/8/12 92/5/12
f 93/37/13 94/38/13 79/18/13 82/19/13
f 95/26/11 96/10/11 66/34/11 65/36/11
f 97/4/13 98/1/13 96/35/13 95/34/13
f 99/17/15 100/33/15 94/32/15 93/31/15
f 64/27/12 63/30/12 78/29/12 77/28/12
f 101/23/11 98/26/11 97/25/11 102/24/11
f 92/21/15 91/6/15 103/20/15 104/22/15
f 104/17/12 103/20/12 100/19/12 99/18/12
f 80/13/13 88/16/13 87/15/13 81/14/13
f 85/9/16 101/12/16 102/11/16 86/10/16
f 60/5/15 59/8/15 90/7/15 89/6/15
f 76/1/13 75/4/13 84/3/13 83/2/13
f 105/63/17 106/64/17 107/65/17 108/66/17
f 109/67/18 110/68/18 111/69/18 112/70/18
f 113/71/19 114/72/19 115/73/19 116/74/19
f 117/75/20 118/76/20 119/77/20 120/78/20
f 111/69/18 110/68/18 121/79/18 122/80/18
f 123/81/17 124/82/17 125/83/17 126/84/17
f 127/85/21 128/86/21 124/87/21 123/88/21
f 123/81/17 126/84/17 129/89/17 130/90/17
f 115/91/18 118/92/18 117/93/18 131/94/18
f 121/79/20 132/95/20 126/96/20 122/80/20
f 126/96/18 132/95/18 133/97/18 129/98/18
f 126/84/17 125/83/17 111/69/17 122/80/17
f 134/99/20 135/100/20 136/101/20 137/102/20
f 138/103/22 139/104/22 140/105/22 141/106/22
f 115/91/20 131/94/20 142/107/20 116/74/20
f 142/107/18 121/79/18 110/68/18 143/108/18
f 144/95/18 121/79/18 142/107/18 145/94/18
f 141/106/18 113/71/18 143/108/18 138/103/18
f 124/87/22 128/86/22 146/109/22 125/110/22
f 139/111/21 147/112/21 114/113/21 140/114/21
f 136/101/18 148/97/18 149/93/18 137/102/18
f 125/83/17 150/115/17 112/70/17 111/69/17
f 151/116/19 152/117/19 153/118/19 154/119/19
f 152/120/22 151/121/22 106/122/22 105/123/22
f 155/124/19 156/125/19 115/73/19 114/72/19
f 133/89/20 157/126/20 130/127/20 129/90/20
f 108/128/20 107/129/20 154/130/20 153/131/20
f 158/132/17 135/133/17 107/65/17 106/64/17
f 146/109/22 147/112/22 143/134/22 110/135/22
f 147/136/17 139/137/17 138/103/17 143/108/17
f 150/138/22 159/139/22 109/67/22 112/70/22
f 108/128/21 153/131/21 152/140/21 105/141/21
f 120/142/21 157/143/21 106/122/21 151/121/21
f 150/144/21 125/110/21 146/109/21 159/145/21
f 140/146/19 114/72/19 113/71/19 141/106/19
f 151/116/19 154/119/19 134/147/19 160/148/19
f 118/76/19 115/73/19 156/125/19 119/77/19
f 148/97/18 144/95/18 145/94/18 149/93/18
f 161/149/23 162/150/23 163/151/23 164/152/23
f 165/153/19 161/154/19 164/155/19 166/156/19
f 162/157/17 167/158/17 168/159/17 163/160/17
f 163/160/24 168/141/24 166/140/24 164/156/24
f 169/161/19 170/162/19 171/163/19 172/164/19
f 172/164/25 173/165/25 174/166/25 169/161/25
f 170/162/26 175/167/26 176/168/26 171/163/26
f 177/165/27 178/169/27 179/170/27 180/171/27
f 181/172/28 182/173/28 179/174/28 178/170/28
f 183/175/29 184/9/29 185/2/29 186/176/29
f 180/171/19 179/170/19 182/174/19 187/177/19
f 177/170/30 180/169/30 187/178/30 188/172/30
f 178/170/17 177/171/17 188/177/17 181/174/17
f 189/179/31 190/180/31 191/181/31 192/9/31
f 193/182/32 194/183/32 190/184/32 189/185/32
f 194/186/33 193/187/33 195/185/33 196/188/33
f 189/180/17 192/181/17 195/188/17 193/186/17
f 197/189/34 198/190/34 199/191/34 200/192/34
f 201/193/35 202/194/35 203/144/35 204/195/35
f 205/196/36 206/190/36 207/197/36 208/198/36
f 209/187/36 210/198/36 211/199/36 212/200/36
f 213/187/36 214/200/36 215/199/36 216/198/36
f 217/201/37 202/187/37 213/202/37 216/203/37
f 208/187/38 211/198/38 210/199/38 205/200/38
f 214/201/39 213/193/39 202/194/39 201/204/39
f 218/193/35 219/195/35 220/144/35 221/194/35
f 212/201/40 218/204/40 221/194/40 209/193/40
f 204/205/41 203/206/41 222/193/41 223/201/41
f 217/196/36 224/198/36 223/197/36 222/190/36
f 224/187/41 217/200/41 216/199/41 215/198/41
f 223/193/42 224/201/42 201/187/42 204/206/42
f 218/187/43 212/202/43 211/203/43 208/201/43
f 209/202/44 221/187/44 205/201/44 210/203/44
f 201/187/42 224/201/42 215/203/42 214/202/42
f 207/193/43 219/206/43 218/187/43 208/201/43
f 203/206/37 202/187/37 217/201/37 222/193/37
f 219/205/38 207/201/38 206/193/38 220/206/38
f 225/189/45 226/192/45 227/191/45 228/190/45
f 205/201/44 221/187/44 220/206/44 206/193/44
f 229/187/46 225/198/46 228/207/46 230/186/46
f 231/204/47 230/205/47 228/187/47 227/197/47
f 232/208/48 229/179/48 230/180/48 231/209/48
f 229/189/49 232/190/49 226/210/49 225/186/49
f 233/187/50 234/186/50 198/207/50 197/198/50
f 235/208/51 236/209/51 234/180/51 233/179/51
f 236/211/52 235/212/52 200/194/52 199/144/52
f 236/204/53 199/197/53 198/187/53 234/205/53
f 233/189/54 197/186/54 200/210/54 235/190/54
f 231/211/55 227/144/55 226/194/55 232/212/55
f 237/186/19 238/192/19 239/213/19 240/214/19
f 241/211/56 242/215/56 243/216/56 244/195/56
f 241/217/57 245/218/57 246/219/57 242/220/57
f 247/211/57 240/215/57 239/221/57 248/144/57
f 247/222/17 248/219/17 249/223/17 250/179/17
f 242/224/19 246/217/19 251/179/19 243/222/19
f 252/218/57 253/219/57 254/220/57 255/217/57
f 252/211/56 240/195/56 247/216/56 253/215/56
f 256/186/17 244/214/17 257/213/17 258/192/17
f 238/201/56 249/193/56 248/212/56 239/203/56
f 259/223/19 260/219/19 243/222/19 251/179/19
f 252/225/19 255/226/19 237/186/19 240/214/19
f 251/227/58 256/226/58 258/186/58 259/228/58
f 258/201/56 257/203/56 260/212/56 259/193/56
f 243/211/57 260/144/57 257/221/57 244/215/57
f 250/227/58 249/228/58 238/186/58 237/226/58
f 253/224/17 247/222/17 250/179/17 254/217/17
f 251/223/59 246/220/59 245/217/59 256/179/59
f 250/223/59 237/179/59 255/217/59 254/220/59
f 261/229/60 262/230/60 263/2/60 264/176/60
f 265/231/61 266/232/61 267/155/61 268/233/61
f 263/2/62 184/9/62 183/175/62 264/176/62
f 186/234/63 261/235/63 264/229/63 183/236/63
f 185/229/64 262/236/64 261/167/64 186/230/64
f 269/237/65 270/238/65 271/206/65 272/184/65
f 273/229/66 274/176/66 275/2/66 276/230/66
f 277/234/67 278/236/67 274/229/67 273/235/67
f 275/2/62 274/176/62 278/175/62 279/9/62
f 280/229/64 277/230/64 273/167/64 276/236/64
f 194/186/19 196/188/19 191/181/19 190/180/19
f 268/237/68 281/184/68 282/206/68 265/238/68
f 266/206/69 283/238/69 284/237/69 267/184/69
f 281/237/70 284/233/70 283/231/70 282/238/70
f 241/225/17 244/214/17 256/186/17 245/226/17
f 285/206/71 286/184/71 287/237/71 288/238/71
f 270/231/72 269/233/72 286/155/72 285/232/72
f 272/237/73 271/238/73 288/231/73 287/233/73
f 175/162/17 174/161/17 173/164/17 176/163/17
f 278/175/74 277/176/74 280/2/74 279/9/74
f 113/71/18 116/74/18 142/107/18 143/108/18
f 159/137/19 146/136/19 110/68/19 109/67/19
f 154/130/20 107/129/20 135/100/20 134/99/20
f 148/129/17 136/128/17 135/133/17 158/132/17
f 160/148/19 134/147/19 137/131/19 149/130/19
f 120/239/19 151/116/19 160/148/19 117/240/19
f 117/240/19 160/148/19 149/130/19 145/99/19
f 131/241/19 117/240/19 145/99/19 142/102/19
f 121/101/17 144/100/17 133/242/17 132/243/17
f 133/242/17 158/132/17 106/64/17 157/244/17
f 144/100/17 148/129/17 158/132/17 133/242/17
f 120/142/21 289/245/21 127/85/21 157/143/21
f 156/246/21 155/247/21 290/248/21 289/245/21
f 157/143/21 127/85/21 123/88/21 130/249/21
f 119/250/21 156/246/21 289/245/21 120/142/21
f 289/245/21 290/248/21 128/86/21 127/85/21
f 147/112/22 290/248/22 155/247/22 114/113/22
f 128/86/22 290/248/22 147/112/22 146/109/22
f 167/157/75 165/153/75 166/156/75 168/160/75
f 181/251/76 188/172/76 187/178/76 182/252/76
